<?xml version="1.0"?>
<svg xmlns="http://www.w3.org/2000/svg" viewBox="0 0 16 16">
    <path style="line-height:normal;text-indent:0;text-align:start;text-decoration-line:none;text-decoration-style:solid;text-decoration-color:#000;text-transform:none;block-progression:tb;isolation:auto;mix-blend-mode:normal" d="M 3 1 L 3 5 L 4 5 L 4 2 L 11 2 L 11 5 L 12 5 L 12 1 L 3 1 z M 5 3 L 5 4 L 10 4 L 10 3 L 5 3 z M 2 6 L 2 7 L 1 7 L 1 8 L 2 8 L 2 12.5 C 2 13.322531 2.6774686 14 3.5 14 L 11.5 14 C 12.322531 14 13 13.322531 13 12.5 L 13 8 L 14 8 L 14 7 L 13 7 L 13 6 L 8 6 L 8 7 L 9 7 L 9 8 L 6 8 L 6 7 L 7 7 L 7 6 L 2 6 z M 3 7 L 5 7 L 5 9 L 10 9 L 10 7 L 12 7 L 12 12.5 C 12 12.781469 11.781469 13 11.5 13 L 3.5 13 C 3.2185314 13 3 12.781469 3 12.5 L 3 7 z M 4.5078125 10 A 0.493 0.5 0 0 0 4.0136719 10.5 A 0.493 0.5 0 0 0 4.5078125 11 A 0.493 0.5 0 0 0 5 10.5 A 0.493 0.5 0 0 0 4.5078125 10 z M 6.4921875 10 A 0.493 0.5 0 0 0 6 10.5 A 0.493 0.5 0 0 0 6.4921875 11 A 0.493 0.5 0 0 0 6.9863281 10.5 A 0.493 0.5 0 0 0 6.4921875 10 z M 8.4921875 10 A 0.493 0.5 0 0 0 8 10.5 A 0.493 0.5 0 0 0 8.4921875 11 A 0.493 0.5 0 0 0 8.9863281 10.5 A 0.493 0.5 0 0 0 8.4921875 10 z M 10.492188 10 A 0.493 0.5 0 0 0 10 10.5 A 0.493 0.5 0 0 0 10.492188 11 A 0.493 0.5 0 0 0 10.986328 10.5 A 0.493 0.5 0 0 0 10.492188 10 z M 5.4921875 11 A 0.493 0.5 0 0 0 5 11.5 A 0.493 0.5 0 0 0 5.4921875 12 A 0.493 0.5 0 0 0 5.9863281 11.5 A 0.493 0.5 0 0 0 5.4921875 11 z M 7.5078125 11 A 0.493 0.5 0 0 0 7.0136719 11.5 A 0.493 0.5 0 0 0 7.5078125 12 A 0.493 0.5 0 0 0 8 11.5 A 0.493 0.5 0 0 0 7.5078125 11 z M 9.5078125 11 A 0.493 0.5 0 0 0 9.0136719 11.5 A 0.493 0.5 0 0 0 9.5078125 12 A 0.493 0.5 0 0 0 10 11.5 A 0.493 0.5 0 0 0 9.5078125 11 z"/>
</svg>
