<?xml version="1.0" encoding="utf-8"?>
<!-- Generator: Adobe Illustrator 24.3.0, SVG Export Plug-In . SVG Version: 6.00 Build 0)  -->
<svg version="1.1" id="Layer_1" xmlns="http://www.w3.org/2000/svg" xmlns:xlink="http://www.w3.org/1999/xlink" x="0px" y="0px"
	 viewBox="0 0 595.28 841.89" style="enable-background:new 0 0 595.28 841.89;" xml:space="preserve">
<style type="text/css">
	.st0{fill:#FEFEFE;}
	.st1{fill:#8CC640;}
	.st2{fill:#0B9345;}
	.st3{fill:#0D9446;}
	.st4{fill:#95C94D;}
	.st5{fill:#7CC399;}
</style>
<g>
	<g>
		<path class="st0" d="M48,670.89c0-166.67,0-333.33,0-500c166.67,0,333.33,0,500,0c0,166.67,0,333.33,0,500
			C381.33,670.89,214.67,670.89,48,670.89z M96.17,421.28c-2.23-0.11-4.46-0.22-6.7-0.34c-0.01,0.25-0.02,0.5-0.04,0.75
			c1.9,0.35,3.8,0.69,5.7,1.04c10.25,2.8,17.42,9.41,20.81,19.17c2.41,6.94,4.02,14.49,4.21,21.81c0.54,21.31,0.14,42.63,0.22,63.95
			c0.03,7.15,0,14.34,0.66,21.45c1.83,19.54,16.52,32.69,36.2,32.75c18.99,0.05,37.98,0.03,56.96,0.01c1.14,0,2.29-0.23,3.43-0.35
			c-14.71-4.86-21.88-15.62-24.65-29.79c-1.01-5.18-1.33-10.57-1.36-15.86c-0.14-24.82,0.05-49.64-0.1-74.45
			c-0.13-22.59-11.25-36.43-31.45-39.63c-0.4-0.05-0.8-0.1-1.21-0.15c-1.9-0.12-3.8-0.24-5.7-0.36c-0.44,0-0.88,0-1.32-0.01
			c-15.89,0-31.79-0.01-47.68-0.01c-0.44,0.01-0.88,0.02-1.32,0.02C100.62,421.3,98.39,421.29,96.17,421.28z M369.05,456.72
			c0.21-0.97,0.51-1.93,0.63-2.9c1.96-15.94,11-26.54,26.37-30.92c1.4-0.4,2.76-0.92,4.14-1.39c-0.05-0.18-0.1-0.36-0.15-0.54
			c-10.32,0-20.63,0-30.95,0c-0.03-39.76,0.01-79.52-0.14-119.28c-0.04-10.88-2.82-21.09-9.87-29.68
			c-8.38-10.2-19.82-11.89-32.09-10.96c-22.81-0.03-45.63-0.36-68.43,0.07c-8.93,0.17-16.66,4.2-22.25,11.62
			c-6.68,8.88-9.32,19.02-9.32,29.94c-0.03,91.43-0.02,182.87-0.02,274.3c0,1.45,0,2.9,0,4.14c0.76,0.37,1.04,0.64,1.33,0.64
			c11.49,0.06,22.98,0.15,34.47,0.13c15.05-0.04,25.63-7.21,31.28-21.2c1.41-3.49,2.53-7.1,3.79-10.66c0,10.57,0,21.14,0,31.49
			c24.26,0,47.64,0,71.22,0C369.05,539.65,369.05,498.18,369.05,456.72z M404.37,422.15c0,2.27,0,4.59,0,6.92
			c0,35.64-0.02,71.27,0.02,106.91c0,4.16,0.16,8.33,0.55,12.46c1.91,20.24,16.33,33.41,36.58,33.45
			c18.98,0.04,37.97,0.01,56.95,0.01c1.52,0,3.04,0,4.56,0c-15.53-4.36-23.07-15.32-26.05-30.02c-1.05-5.17-1.33-10.56-1.39-15.86
			c-0.17-16.48-0.01-32.97-0.08-49.46c-0.05-10.82,0.16-21.67-0.56-32.45c-1.08-16.3-12.22-29.74-28.28-31.64
			C432.94,420.86,418.87,422.15,404.37,422.15z"/>
		<path class="st1" d="M297.83,550.02c-1.26,3.56-2.38,7.17-3.79,10.66c-5.65,13.99-16.22,21.16-31.28,21.2
			c-11.49,0.03-22.98-0.06-34.47-0.13c-0.29,0-0.57-0.26-1.33-0.64c0-1.23,0-2.68,0-4.14c0-91.43-0.01-182.87,0.02-274.3
			c0-10.91,2.64-21.06,9.32-29.94c5.59-7.43,13.32-11.45,22.25-11.62c22.8-0.43,45.62-0.09,68.43-0.07
			c-5.25,2.61-11.22,4.36-15.61,8.01c-10.27,8.55-13.36,20.63-13.37,33.49c-0.07,79.32-0.04,158.64-0.05,237.97
			C297.97,543.69,297.88,546.85,297.83,550.02z"/>
		<path class="st2" d="M297.83,550.02c0.05-3.16,0.14-6.33,0.14-9.49c0.01-79.32-0.02-158.64,0.05-237.97
			c0.01-12.87,3.1-24.94,13.37-33.49c4.39-3.65,10.36-5.4,15.61-8.01c12.26-0.93,23.7,0.75,32.09,10.96
			c7.05,8.58,9.83,18.79,9.87,29.68c0.15,39.76,0.11,79.52,0.14,119.27c-0.02,11.92-0.03,23.84-0.05,35.76c0,41.46,0,82.92,0,124.78
			c-23.58,0-46.96,0-71.22,0C297.83,571.16,297.83,560.59,297.83,550.02z"/>
		<path class="st3" d="M160.06,421.81c20.2,3.2,31.31,17.04,31.45,39.63c0.14,24.82-0.04,49.64,0.1,74.45
			c0.03,5.29,0.35,10.68,1.36,15.86c2.77,14.17,9.94,24.93,24.65,29.79c-1.14,0.12-2.29,0.35-3.43,0.35
			c-18.99,0.02-37.98,0.04-56.96-0.01c-19.68-0.06-34.37-13.21-36.2-32.75c-0.67-7.11-0.64-14.3-0.66-21.45
			c-0.08-21.32,0.32-42.65-0.22-63.95c-0.19-7.32-1.8-14.87-4.21-21.81c-3.38-9.76-10.56-16.37-20.81-19.17
			c0.34-0.48,0.69-0.97,1.03-1.45c2.23,0.01,4.45,0.01,6.68,0.02c0.44-0.01,0.88-0.02,1.32-0.02c15.89,0,31.79,0.01,47.68,0.01
			c0.44,0,0.88,0,1.32,0.01c1.9,0.12,3.8,0.24,5.7,0.36C159.26,421.71,159.66,421.76,160.06,421.81z"/>
		<path class="st3" d="M404.37,422.15c14.5,0,28.57-1.28,42.3,0.33c16.06,1.89,27.2,15.33,28.28,31.64
			c0.72,10.78,0.51,21.63,0.56,32.45c0.08,16.49-0.09,32.97,0.08,49.46c0.05,5.3,0.34,10.69,1.39,15.86
			c2.98,14.7,10.53,25.66,26.05,30.02c-1.52,0-3.04,0-4.56,0c-18.98,0-37.97,0.03-56.95-0.01c-20.25-0.05-34.67-13.21-36.58-33.45
			c-0.39-4.14-0.54-8.31-0.55-12.46c-0.04-35.64-0.02-71.27-0.02-106.91C404.37,426.74,404.37,424.41,404.37,422.15z"/>
		<path class="st4" d="M369.05,456.72c0.02-11.92,0.03-23.84,0.05-35.76c10.32,0,20.63,0,30.95,0c0.05,0.18,0.1,0.36,0.15,0.54
			c-1.38,0.47-2.74,0.99-4.14,1.39c-15.37,4.39-24.41,14.98-26.37,30.92C369.56,454.8,369.27,455.75,369.05,456.72z"/>
		<path class="st5" d="M96.17,421.28c-0.34,0.48-0.69,0.97-1.03,1.45c-1.9-0.35-3.8-0.69-5.7-1.04c0.01-0.25,0.02-0.5,0.04-0.75
			C91.7,421.06,93.93,421.17,96.17,421.28z"/>
		<path class="st5" d="M104.16,421.28c-0.44,0.01-0.88,0.02-1.32,0.02C103.28,421.3,103.72,421.29,104.16,421.28z"/>
		<path class="st5" d="M153.16,421.3c-0.44,0-0.88-0.01-1.32-0.01C152.28,421.3,152.72,421.3,153.16,421.3z"/>
		<path class="st5" d="M160.06,421.81c-0.4-0.05-0.8-0.1-1.21-0.15C159.26,421.71,159.66,421.76,160.06,421.81z"/>
	</g>
</g>
</svg>
