<?xml version="1.0" encoding="utf-8"?>
<!-- Generator: Adobe Illustrator 24.3.0, SVG Export Plug-In . SVG Version: 6.00 Build 0)  -->
<svg version="1.1" id="Layer_1" xmlns="http://www.w3.org/2000/svg" xmlns:xlink="http://www.w3.org/1999/xlink" x="0px" y="0px"
	 viewBox="0 0 48.8 22.4" style="enable-background:new 0 0 48.8 22.4;" xml:space="preserve">
<path id="ic_vpn_key_24px" d="M34.8,8.8c-2.8-1.3-6.1,0-7.4,2.8c-1.3,2.8,0,6.1,2.8,7.4c2.8,1.3,6.1,0,7.4-2.8
	c0.7-1.5,0.6-3.3-0.1-4.8l2.8-2.9l2.7,2.6l2.6-2.7l-2.7-2.6l1.3-1.3l-2.7-2.6L34.8,8.8z M33.8,15.2c-0.7,0.7-1.9,0.8-2.6,0.1
	c-0.7-0.7-0.8-1.9-0.1-2.6c0.7-0.7,1.9-0.8,2.6-0.1C34.5,13.3,34.5,14.5,33.8,15.2z"/>
<path id="ic_person_24px" d="M12.3,10.2c2.2,0,4-1.8,4-4s-1.8-4-4-4s-4,1.8-4,4S10,10.2,12.3,10.2z M12.1,12.6c-2.7,0-8,1.3-8,4v2
	h16v-2C20.1,13.9,14.8,12.6,12.1,12.6z"/>
</svg>
