<svg xmlns="http://www.w3.org/2000/svg" xmlns:xlink="http://www.w3.org/1999/xlink" width="1833.448" height="4210.867" viewBox="0 0 1833.448 4210.867">
  <defs>
    <linearGradient id="linear-gradient" x1="0.5" x2="0.5" y2="1" gradientUnits="objectBoundingBox">
      <stop offset="0" stop-color="#8dc73f"/>
      <stop offset="0.548" stop-color="#097435"/>
      <stop offset="1" stop-color="#0b9444"/>
    </linearGradient>
    <filter id="Path_54" x="0" y="0" width="" height="4210.867" filterUnits="userSpaceOnUse">
      <feOffset input="SourceAlpha"/>
      <feGaussianBlur stdDeviation="20.5" result="blur"/>
      <feFlood flood-opacity="0.161"/>
      <feComposite operator="in" in2="blur"/>
      <feComposite in="SourceGraphic"/>
    </filter>
  </defs>
  <g transform="matrix(1, 0, 0, 1, 0, 0)" filter="url(#Path_54)">
    <path id="Path_54-2" data-name="Path 54" d="M1338.953-1224.429c0-136.682-138.425,235.368-566.454,466.718-149.27,80.681-129.415,44.54-573.677,280.031C89.521-419.743,45-396.866-63.63-390.17c-35.053,2.161-105.29,5.834-105.29,5.834-68.854,76.675-84.785,77.068-81.241,190.021,2.05,65.345,95.176,150.017,95.176,150.017,29.252,0,95,7.611,106.839,10C26.176-19.3,84.686-11.487,252.241,72.589,516.574,205.226,730.12,372.1,760.112,395.749,876.536,487.57,1027.934,602.4,1027.983,602.439c18.3,5.2,54.05,42.746,66.58,66.675,31.953,61.017-44.687,147.153-105.29,193.355-15.042,11.467-74.479-16.243-99.1-26.67C633.451,727.059,373.86,839.44,10.693,769.124c-18.049-3.494-61.187-12.367-92.9,13.335-55.626,45.078-56.341,180.479,0,233.359,29.55,27.735,67.743,26.151,92.9,26.669,212.017,4.373,315.477,174.932,594.58,366.708,11.224,7.711,37.98,25.934,49.549,60.006,3.93,11.576,10.385,37.578-6.194,93.344-13.488,45.37-40.193,135.2-99.1,153.351-41.785,12.877-78.587-16.843-117.677-40.005-183.481-108.719-390.821-57.249-594.581-6.667-23.289,5.781-53.047,14.033-80.516,40-81.726,77.27-84.617,256.012-18.581,306.7,21.99,16.88,36.774,8.162,80.517,13.336,140.146,16.573,150.414,125.21,309.677,180.019,66.845,23,109.9,19.307,154.839,66.675,10.858,11.446,46.144,48.639,43.354,93.344-3.662,58.689-70.892,97.362-111.483,120.013-161.829,90.306-326.729,168.265-427.355,213.357-141.995,63.629-156.125,75.22-154.839,86.676,4.324,38.527,182.481,71.155,346.839,13.335,32.223-11.336,49.284-21,86.709-40C394.59,2596.055,509.887,2614.593,580.5,2489.313c44.687-79.283,43.665-166.818,43.355-193.355-.476-40.79-1.575-134.845-55.742-206.689C458.506,1943.9,153.928,1919.068,103.6,1889.247c-2.79-1.652-11.493-7.287-30.368-18.772-27.624-16.809-31.678-18.549-31.568-21.232.451-10.959,69.689-21.207,130.065-20,205.01,4.092,270.542,139.5,483.1,146.683,39.935,1.35,74.659,2.178,117.677-13.335,162.36-58.548,213.813-267.263,216.774-280.031,6.657-28.694,29.8-134.469-12.387-246.694-18.107-48.168-55.426-92.119-130.064-180.02-88.212-103.886-132.317-155.83-173.42-193.355-42.663-38.95-73.492-61.54-68.129-83.6,7.122-29.293,73.046-37.048,111.484-36.413,53.842.889,105.928,13.474,124.258,21.252,16.23,6.887,234.024,49.866,253.548,45.422,107.486-24.469,214.228-236.392,248.519-309.2,5.143-10.919-102-211.9-174.2-310.867-20.112-27.572-80.133-120.9-204.387-226.692-105.847-90.119-287.644-216.107-470.71-326.7-41.322-24.964-106.858-63.734-105.29-113.345,1.593-50.412,89.032-73.758,89.032-73.758L673.4-391c99.1-15.418,328.768-49.146,467.613-90.009,92.181-27.13,197.158-59.823,197.938-83.343C1348.244-844.388,1338.953-1082.229,1338.953-1224.429Z" transform="translate(428.69 1315.29)" fill="url(#linear-gradient)"/>
  </g>
</svg>
