<?xml version="1.0" encoding="utf-8"?>
<!-- Generator: Adobe Illustrator 24.3.0, SVG Export Plug-In . SVG Version: 6.00 Build 0)  -->
<svg version="1.1" id="Layer_1" xmlns="http://www.w3.org/2000/svg" xmlns:xlink="http://www.w3.org/1999/xlink" x="0px" y="0px"
	 viewBox="0 0 24 24" style="enable-background:new 0 0 24 24;" xml:space="preserve">
<style type="text/css">
	.st0{fill:none;}
</style>
<path class="st0" d="M24,0v24H0V0H24z"/>
<path d="M12.4,21.4l9-9C21.8,12,22,11.5,22,11V4c0-1.1-0.9-2-2-2h-7c-0.6,0-1.1,0.2-1.4,0.6l-9,9C2.2,11.9,2,12.4,2,13
	s0.2,1.1,0.6,1.4l7,7C9.9,21.8,10.4,22,11,22S12.1,21.8,12.4,21.4z M4,13l9-9h7v7h0l-9,9L4,13z"/>
<circle cx="17.5" cy="6.5" r="1.5"/>
</svg>
